# xmcd CD database file
#
# Track frame offsets:
#	150
#	9523
#	19996
#	27227
#	42881
#	56584
#	70300
#	79410
#	87850
#	100006
#	113140
#	123785
#	136998
#	148380
#	169789
#	182892
#	193766
#
# Disc length: 2744 seconds
#
# Revision: 0
# Processed by: cddbd v1.4PL0 Copyright (c) Steve Scherf et al.
# Submitted via: CDex 1.50beta10
#
DISCID=eb0ab611
DTITLE=Sam McGee - Sam McGee: Grand Dad of the Country Guitar Pickers
DYEAR=1997
DGENRE=Country
TTITLE0=Sam McGee Stomp
TTITLE1=Fuller Blues
TTITLE2=Burglar Bold
TTITLE3=Dew Drop
TTITLE4=Jesse James
TTITLE5=Ching Chong
TTITLE6=Blackberry Blossom
TTITLE7=Wheels
TTITLE8=How Great Thou Art
TTITLE9=When the Wagon Was New
TTITLE10=Franklin Blues
TTITLE11=Penitentiary Blues
TTITLE12=Pig Ankle Rag
TTITLE13=Railroad Blues
TTITLE14=Buckdancer's Choice
TTITLE15=Black Mountain Rag
TTITLE16=Wayfaring Stranger
EXTD=YEAR: 1997
EXTT0=
EXTT1=
EXTT2=
EXTT3=
EXTT4=
EXTT5=
EXTT6=
EXTT7=
EXTT8=
EXTT9=
EXTT10=
EXTT11=
EXTT12=
EXTT13=
EXTT14=
EXTT15=
EXTT16=
PLAYORDER=
